<svg id="Capa_1" data-name="Capa 1" xmlns="http://www.w3.org/2000/svg" viewBox="0 0 141.16 145.86"><defs><style>.cls-1{fill:#00528d;}.cls-2{fill:#fff;}</style></defs><title>contacto</title><path class="cls-1" d="M121.91,74a44,44,0,1,1-44-44,44,44,0,0,1,44,44"/><path class="cls-2" d="M85.31,53.19h5.16a13.8,13.8,0,0,1,4.3,26.92A.93.93,0,0,0,94,81.19c.06,1.5,0,3,0,4.52a1.75,1.75,0,0,1-1,1.8,1.83,1.83,0,0,1-2-.35l-7.23-6a1.37,1.37,0,0,0-.92-.35,31.28,31.28,0,0,1-5.21-.19,13.84,13.84,0,0,1,.29-27.25,18.06,18.06,0,0,1,2.94-.16h4.47M90.5,82.12c0-1.07,0-2,0-2.9,0-1.35.45-1.9,1.8-2.16a10.29,10.29,0,0,0-2.15-20.37l-9.84,0a13.26,13.26,0,0,0-1.66.13,10.26,10.26,0,0,0,.68,20.38c1.48.12,3,0,4.46.06a2.22,2.22,0,0,1,1.52.54L88,80l2.55,2.09"/><path class="cls-2" d="M63,97.26c0-.81,0-1.62,0-2.42,0-.49-.17-.68-.61-.83a13.58,13.58,0,0,1-8.78-8.26,13.83,13.83,0,0,1,7-17.39A1.78,1.78,0,0,1,63.31,70a1.81,1.81,0,0,1-1.19,1.53,9.94,9.94,0,0,0-5.44,6.2A10.24,10.24,0,0,0,64.77,91,1.83,1.83,0,0,1,66.5,93.1c0,.81,0,1.61,0,2.42,0,.12-.06.28.08.34s.23-.08.32-.16c1.62-1.35,3.25-2.7,4.86-4.07a2.24,2.24,0,0,1,1.53-.54c1.45,0,2.9,0,4.35-.08a9.92,9.92,0,0,0,6.18-2.81,2.31,2.31,0,0,1,1.31-.78,1.79,1.79,0,0,1,1.85.93,1.82,1.82,0,0,1-.34,2.09,13.44,13.44,0,0,1-5,3.29,13,13,0,0,1-4.78.87,8.49,8.49,0,0,1-1.13,0,4.17,4.17,0,0,0-3.64,1.34c-1.94,1.75-4,3.38-6,5.07a1.84,1.84,0,0,1-2,.36,1.72,1.72,0,0,1-1-1.79c0-.77,0-1.54,0-2.31"/><path class="cls-2" d="M78.48,67c0,.43,0,.86,0,1.29s-.1.46-.43.46c-.87,0-1.75,0-2.62,0-.31,0-.47-.1-.46-.43,0-.87,0-1.75,0-2.62,0-.36.15-.47.49-.46.83,0,1.67,0,2.51,0,.41,0,.54.16.52.54s0,.82,0,1.23"/><path class="cls-2" d="M85.28,68.75H84c-.29,0-.41-.13-.41-.42,0-.89,0-1.78,0-2.68,0-.29.12-.42.42-.41h2.67c.3,0,.42.12.42.41,0,.9,0,1.79,0,2.68,0,.3-.12.42-.42.42-.46,0-.93,0-1.39,0"/><path class="cls-2" d="M94,68.73c-.44,0-.89,0-1.34,0-.3,0-.46-.09-.46-.42,0-.9,0-1.79,0-2.68,0-.3.14-.41.42-.41h2.68c.3,0,.41.15.41.43,0,.89,0,1.79,0,2.68,0,.3-.15.41-.43.41s-.86,0-1.29,0"/></svg>