<svg id="Capa_1" data-name="Capa 1" xmlns="http://www.w3.org/2000/svg" viewBox="0 0 513.39 193.16"><defs><style>.cls-1{fill:#ae032f;}</style></defs><title>tiempo de pago</title><path class="cls-1" d="M496.17,72.94v63.91a18,18,0,0,1-18,18H99.23a60.08,60.08,0,0,0,7.7-6.48C121.32,134,127.41,115.89,124.57,96a60,60,0,0,0-25.81-41h379.4a18,18,0,0,1,18,18"/><path class="cls-1" d="M64.78,41.19c3.2,0,6.39,0,9.58,0,1.06,0,1.42.3,1.39,1.39-.07,2.66-.06,5.32,0,8,0,.9-.26,1.27-1.17,1.24-1.15-.05-2.3,0-3.44,0-.79,0-1.06.33-1.09,1.11-.09,2.8-.12,2.8,2.59,3.21A49.5,49.5,0,0,1,113.78,97.5c2.41,16.82-2.6,31.25-14.55,43.16a46.8,46.8,0,0,1-28.4,13.53c-16,1.85-29.84-3.1-41.26-14.37a47.66,47.66,0,0,1-13.91-28.73,48.09,48.09,0,0,1,8.86-34.84c8-11.18,18.89-17.75,32.37-20.15H57c2.81-.42,2.83-.47,2.61-3.37-.06-.68-.33-.95-1-.95-1.26,0-2.53,0-3.8,0-.95,0-1.32-.37-1.31-1.31,0-2.62,0-5.24,0-7.85,0-1.07.41-1.45,1.45-1.44,3.28,0,6.55,0,9.82,0m.14,20.2c-24.22.2-43.56,19.09-43.65,43.41a43.19,43.19,0,0,0,43.48,43.78,43.21,43.21,0,0,0,43.66-43.48c0-24.84-19.7-43.46-43.49-43.71"/><path class="cls-1" d="M107.14,105.15a42.31,42.31,0,1,1-84.62-.44c0-23.26,19.06-42,42.65-42,23.15,0,42,19.06,42,42.43m-1.6,0a40.67,40.67,0,0,0-40.4-40.84c-22.64,0-41,18-41,40.37a40.71,40.71,0,1,0,81.41.47"/><path class="cls-1" d="M30.38,105.25a34.69,34.69,0,0,1,6.76-20.38c.48-.66.55-1.13-.17-1.6-.31-.2-.58-.45-.87-.68-.64-.5-.46-.86.19-1.14a33.67,33.67,0,0,1,9.79-2.64c.71-.07.79.25.55.8A28.65,28.65,0,0,0,44.39,88c-.08.78-.37.89-1,.39-1.71-1.32-1.73-1.3-2.92.47a29.41,29.41,0,0,0,1.09,34.42,29,29,0,0,0,15.32,10.47c1.11.33,1.38.83,1,1.84-.11.35-.17.72-.25,1.07-.61,2.63-.12,2.52-3,1.65a34.46,34.46,0,0,1-24.09-29.62c-.11-1.15-.21-2.28-.21-3.43"/><path class="cls-1" d="M65.05,107.79a2.77,2.77,0,0,1-2.94-2.48,9.84,9.84,0,0,0-1-4c-.59-1.2-.84-2.76-1.34-4.13q-4-11-8-22c-.4-1.08-.17-1.52.89-1.87,3-1,2.35-1,3.28,1.51,2.91,7.87,5.78,15.74,8.67,23.61.56,1.53.75,1.56,1.78.37,2.87-3.3,5.75-6.59,8.58-9.92.63-.74,1.07-.82,1.78-.13.87.85,1.84,1.61,2.78,2.41.58.48.62.89.08,1.52C75.9,96.79,72.29,101,68.67,105.2c-1,1.22-2,2.47-3.62,2.59"/><path class="cls-1" d="M65.09,137.52c0,.57,0,1.14,0,1.71a.65.65,0,0,1-.71.67c-.47,0-.81-.18-.82-.7a19.87,19.87,0,0,1,.14-3.53c.07-.39.22-.7.69-.69s.66.41.68.83,0,1.14,0,1.71Z"/><path class="cls-1" d="M84.08,128.25a1.52,1.52,0,0,1,.42.29c.78.88,1.54,1.77,2.31,2.66.41.47.14.79-.22,1.12s-.69.29-1-.13c-.67-.91-1.38-1.8-2.07-2.7-.19-.26-.4-.54-.14-.87a.85.85,0,0,1,.7-.37"/><path class="cls-1" d="M66.37,73.34c0,.47,0,1.08-.08,1.69,0,.39-.2.71-.66.74S65,75.5,65,75.09c0-1.14-.09-2.29-.11-3.43a.67.67,0,0,1,.73-.78c.57,0,.8.3.8.84v1.62"/><path class="cls-1" d="M87.09,79.09c.57,0,1.13.82.8,1.21-.85,1-1.77,1.92-2.67,2.87-.24.26-.5.19-.76,0s-.48-.45-.27-.72c.85-1.09,1.74-2.15,2.62-3.22a.74.74,0,0,1,.28-.14"/><path class="cls-1" d="M90.88,82.6c-.09.23-.1.38-.18.45-1,.89-2,1.78-3,2.64-.26.22-.54.06-.75-.17a.54.54,0,0,1-.1-.76A17.4,17.4,0,0,1,89.71,82c.6-.49.79.39,1.17.63"/><path class="cls-1" d="M91,120.34a23.1,23.1,0,0,1,3.6,2.15c.33.27,0,.67-.22,1s-.51.32-.83.11l-3.06-2c-.3-.19-.52-.41-.3-.79a.75.75,0,0,1,.81-.46"/><path class="cls-1" d="M95.38,101.38c-.6,0-1,0-1.09-.54s.19-.67.58-.79a16.47,16.47,0,0,1,3.41-.67c.52,0,.71.25.78.72s-.1.76-.61.83l-3.07.45"/><path class="cls-1" d="M95.36,89.05c.07.41-.16.57-.42.71l-3,1.56c-.35.18-.69.26-1-.15s-.12-.76.29-1c1-.58,2-1.19,2.94-1.76.78-.46,1,.16,1.19.65"/><path class="cls-1" d="M97,104.88H95.29c-.43,0-.71-.14-.74-.61a.59.59,0,0,1,.53-.7c1.18-.13,2.35-.25,3.53-.33.59,0,.91.29.91.9s-.44.7-.92.71-1.06,0-1.59,0Z"/><path class="cls-1" d="M76.67,137.06c.1.72-.15.87-.5,1s-.76.14-.92-.32c-.4-1.19-.79-2.39-1.17-3.59-.11-.38.08-.61.45-.74s.6-.07.73.24c.52,1.23,1,2.48,1.41,3.45"/><path class="cls-1" d="M62.72,74c-.32.6.62,1.77-.65,1.85-1.12.08-.64-1.09-.83-1.7A16.92,16.92,0,0,1,60.93,72c-.07-.54.11-.84.69-.91s.82.17.87.73c.06.73.15,1.45.23,2.2"/><path class="cls-1" d="M68.45,74.79c.1-.94.19-1.87.29-2.8.05-.48.2-.88.82-.82s.81.46.73,1c-.14.92-.3,1.84-.45,2.76-.09.51,0,1.18-.83,1.08s-.51-.77-.56-1.25"/><path class="cls-1" d="M71.92,75.83l.72-3.35c.08-.39.22-.73.72-.6s.94.28.79.88c-.28,1.19-.62,2.36-1,3.54-.12.43-.42.56-.86.41s-.49-.49-.41-.88"/><path class="cls-1" d="M79.17,79.36c-.53-.17-.94-.37-.68-1,.5-1.11,1-2.21,1.57-3.31a.58.58,0,0,1,.9-.29c.34.17.73.4.52.82-.61,1.2-1.28,2.36-1.94,3.53-.07.11-.27.15-.37.21"/><path class="cls-1" d="M84.89,77.7a22.31,22.31,0,0,1-2.59,3.42c-.19.19-.46,0-.65-.17a.53.53,0,0,1-.16-.76c.67-1.07,1.34-2.14,2-3.2a.54.54,0,0,1,.84-.15c.27.18.57.35.53.86"/><path class="cls-1" d="M89.61,88.51a.72.72,0,0,1-.58-.4.52.52,0,0,1,.13-.76c1-.79,2-1.57,3-2.35a.49.49,0,0,1,.75.08,1,1,0,0,1,.38.86,19.72,19.72,0,0,1-3.66,2.57"/><path class="cls-1" d="M94.52,97.91c-.66,0-.91-.11-1-.49a.57.57,0,0,1,.42-.76l3.48-1.16c.49-.16.68.13.78.52s.1.85-.41,1c-1.17.34-2.36.64-3.27.89"/><path class="cls-1" d="M94.78,110.57c1.16.18,2.33.37,3.5.52.47.06.65.27.56.73s-.19,1-.81.83c-1.2-.24-2.39-.51-3.58-.8-.45-.1-.53-.45-.44-.86s.41-.47.77-.42"/><path class="cls-1" d="M94,114l3.4,1c.5.15.59.47.46,1s-.38.71-.89.54l-3.34-1.17c-.38-.13-.63-.37-.49-.83A.65.65,0,0,1,94,114"/><path class="cls-1" d="M96.49,119.3c-.16.55-.32,1.15-1.14.76l-3.09-1.51c-.37-.18-.6-.43-.42-.87a.61.61,0,0,1,.88-.39l3.4,1.42a.52.52,0,0,1,.37.59"/><path class="cls-1" d="M83.83,133.77a.88.88,0,0,1-.6.86.56.56,0,0,1-.85-.17c-.65-1.07-1.28-2.16-1.91-3.25a.51.51,0,0,1,.21-.73c.21-.14.49-.34.66-.13.88,1.16,1.72,2.35,2.49,3.42"/><path class="cls-1" d="M61.45,136.49c-.06.53-.16,1.42-.25,2.31-.05.52-.21.84-.84.76s-.83-.41-.73-1l.48-2.89c.08-.47,0-1,.78-1s.59.62.59,1.09c0,.12,0,.24,0,.72"/><path class="cls-1" d="M75.19,77.11c.44-1.23.86-2.45,1.32-3.67.17-.45.56-.38.93-.25s.64.39.47.83c-.48,1.16-1,2.32-1.46,3.48a.55.55,0,0,1-.81.28.64.64,0,0,1-.45-.67"/><path class="cls-1" d="M98.3,108.76l-3-.28c-.49,0-.87-.2-.79-.83s.45-.59.89-.57l2.91.12c.52,0,1.15-.07,1.1.75s-.58.89-1.08.81"/><path class="cls-1" d="M92.55,126.06c-.3.49-.55,1.13-1.2.69-1-.72-2-1.57-3-2.37-.31-.26-.23-.57,0-.87s.41-.46.72-.24c1.09.78,2.18,1.58,3.26,2.39.11.08.14.27.21.4"/><path class="cls-1" d="M78.07,132c.36,0,.5.29.63.54.51,1,1,2,1.51,2.92.22.43.24.76-.25,1s-.85.26-1.1-.29c-.49-1.07-1-2.13-1.47-3.21-.29-.67.18-.85.68-1"/><path class="cls-1" d="M69,138.79c0,.53-.12.87-.71.91a.67.67,0,0,1-.82-.68c-.09-1.13-.18-2.27-.25-3.41,0-.39.07-.74.54-.8s.72.27.78.72c.15,1.09.3,2.18.46,3.26"/><path class="cls-1" d="M86.54,125.84a6.54,6.54,0,0,1,.64.41c.8.71,1.57,1.43,2.37,2.13.39.35.56.67.12,1.12s-.77.52-1.22,0c-.76-.84-1.57-1.65-2.35-2.48-.21-.22-.37-.48-.13-.75a3,3,0,0,1,.57-.46"/><path class="cls-1" d="M59.21,75.35c0,.7-.1,1-.54,1.08s-.66-.18-.76-.57c-.27-1.06-.53-2.13-.81-3.19-.14-.51-.06-.88.52-1s.85.1,1,.63c.23,1.11.46,2.22.63,3.06"/><path class="cls-1" d="M70.74,135.39c-.08-.7.05-1,.5-1.1s.67.19.77.58c.29,1.11.55,2.22.84,3.32.14.51,0,.77-.54.9s-.8,0-.91-.5c-.25-1.16-.48-2.32-.66-3.2"/><path class="cls-1" d="M97.05,92.67c0,.36-.18.52-.46.63L93.4,94.53c-.43.16-.8.15-1-.37s.09-.69.45-.85c1-.48,2.06-1,3.12-1.4a.78.78,0,0,1,1.07.76"/></svg>