<svg id="Capa_1" data-name="Capa 1" xmlns="http://www.w3.org/2000/svg" viewBox="0 0 582.76 183.34"><defs><style>.cls-1{fill:#ae032f;}</style></defs><title>whatsApp</title><path class="cls-1" d="M523,57.12v71.39a20.12,20.12,0,0,1-20.12,20.11h-339a66.51,66.51,0,0,0,8.6-7.24c16.07-16,22.88-36.29,19.71-58.54A67.11,67.11,0,0,0,163.31,37H502.86A20.12,20.12,0,0,1,523,57.12"/><path class="cls-1" d="M126.66,37a55.67,55.67,0,0,1,54.26,45.48c5.52,29.91-14.21,58.85-43.91,64.37a55.5,55.5,0,0,1-33.53-4.06,5.24,5.24,0,0,0-3.08-.31c-8.44,1.92-16.85,4-25.27,6-2.79.67-4.06-.46-3.5-3.25,1.75-8.71,3.58-17.4,5.3-26.11a4.76,4.76,0,0,0-.31-2.79,55.27,55.27,0,0,1,39.24-77.89c3.55-.7,7.2-.94,10.8-1.39M85.08,134.52c.74-.11,1.21-.14,1.66-.24,4.38-1,8.79-1.95,13.13-3.13a6.68,6.68,0,0,1,5.28.61,44.78,44.78,0,0,0,65.37-47.89c-6.24-30.9-41.44-45.95-68-29.07A44.72,44.72,0,0,0,82.5,100.09a52.74,52.74,0,0,0,5.42,15.21,5.09,5.09,0,0,1,.42,3c-1,5.31-2.11,10.58-3.26,16.19"/><path class="cls-1" d="M141,119.68a31.33,31.33,0,0,1-14.08-4.05,64.57,64.57,0,0,1-24.52-23.22,25.26,25.26,0,0,1-3.72-12.47,13,13,0,0,1,3.17-9.1,32.64,32.64,0,0,1,4-4,3.91,3.91,0,0,1,6.26,1.36c1.64,3.38,3.12,6.83,4.6,10.28a4,4,0,0,1-.5,4.11c-.58.79-1.19,1.56-1.78,2.35-1.72,2.26-1.87,3.6-.19,5.78a57.52,57.52,0,0,0,16.53,14.62c2.39,1.4,4,1.25,5.69-.88,2.56-3.18,5.43-3.86,9.16-2.34a71.56,71.56,0,0,0,7,2c3.69,1.06,4.78,4,2.6,7.22s-4.82,6.42-9,7.52a51.19,51.19,0,0,1-5.27.85"/></svg>